<?xml version="1.0" encoding="utf-8"?>
<!-- Generator: Adobe Illustrator 23.0.6, SVG Export Plug-In . SVG Version: 6.00 Build 0)  -->
<svg version="1.1" id="Calque_1" xmlns="http://www.w3.org/2000/svg" xmlns:xlink="http://www.w3.org/1999/xlink" x="0px" y="0px"
	 viewBox="0 0 150 150" style="enable-background:new 0 0 150 150;" xml:space="preserve">
<style type="text/css">
	.st0{fill:url(#SVGID_1_);}
	.st1{fill:url(#SVGID_2_);}
	.st2{fill:url(#SVGID_3_);}
</style>
<g>
	<g>
		<linearGradient id="SVGID_1_" gradientUnits="userSpaceOnUse" x1="42.2503" y1="30.1025" x2="110.9409" y2="98.7931">
			<stop  offset="0" style="stop-color:#805EA8"/>
			<stop  offset="1" style="stop-color:#C75DA3;stop-opacity:0.5"/>
		</linearGradient>
		<path class="st0" d="M40.25,57.63c2.58,2.2,3.87,5.08,3.87,8.64c0,1.2-0.16,2.54-0.48,4.02c-0.76,3.28-2.18,6.15-4.26,8.61
			c-2.08,2.46-4.63,4.36-7.65,5.7c-3.02,1.34-6.29,2.01-9.81,2.01c-5.56,0-9.67-1.11-12.33-3.33c-2.66-2.22-3.99-5.17-3.99-8.85
			c0-1.24,0.16-2.62,0.48-4.14c0.76-3.12,2.21-5.89,4.35-8.31c2.14-2.42,4.76-4.3,7.86-5.64c3.1-1.34,6.41-2.01,9.93-2.01
			C33.66,54.33,37.67,55.43,40.25,57.63z M25.37,61.92c-0.94,1.5-2.05,4.33-3.33,8.49c-1.28,4.16-1.92,7.08-1.92,8.76
			c0,0.88,0.14,1.47,0.42,1.77c0.28,0.3,0.66,0.45,1.14,0.45c0.84,0.08,1.71-0.64,2.61-2.16s2.03-4.48,3.39-8.88
			c1.24-3.88,1.86-6.7,1.86-8.46c0-0.84-0.13-1.42-0.39-1.74c-0.26-0.32-0.63-0.48-1.11-0.48C27.2,59.67,26.31,60.42,25.37,61.92z"
			/>
		<linearGradient id="SVGID_2_" gradientUnits="userSpaceOnUse" x1="42.2503" y1="30.1025" x2="110.9409" y2="98.7931">
			<stop  offset="0" style="stop-color:#805EA8"/>
			<stop  offset="1" style="stop-color:#C75DA3;stop-opacity:0.5"/>
		</linearGradient>
		<path class="st1" d="M101.42,77.79c-0.08,0.16-0.12,0.4-0.12,0.72c0,0.28,0.07,0.5,0.21,0.66c0.14,0.16,0.33,0.24,0.57,0.24
			c0.48,0,0.89-0.21,1.23-0.63c0.34-0.42,0.57-0.63,0.69-0.63c0.2,0,0.36,0.13,0.48,0.39c0.12,0.26,0.18,0.57,0.18,0.93
			c0.04,1.16-0.34,2.29-1.14,3.39c-0.8,1.1-1.97,2-3.51,2.7c-1.54,0.7-3.39,1.05-5.55,1.05c-2.64,0-4.74-0.61-6.3-1.83
			c-1.56-1.22-2.36-2.85-2.4-4.89c0-1.48,0.36-3.14,1.08-4.98l3.3-8.64c0.2-0.52,0.3-0.94,0.3-1.26c0-0.52-0.17-0.93-0.51-1.23
			c-0.34-0.3-0.75-0.45-1.23-0.45c-0.68,0-1.38,0.3-2.1,0.9c-0.72,0.6-1.36,1.54-1.92,2.82l-3.3,10.74
			c-0.08,0.16-0.12,0.4-0.12,0.72c0,0.28,0.07,0.5,0.21,0.66c0.14,0.16,0.33,0.24,0.57,0.24c0.48,0,0.89-0.21,1.23-0.63
			c0.34-0.42,0.57-0.63,0.69-0.63c0.2,0,0.36,0.13,0.48,0.39c0.12,0.26,0.18,0.57,0.18,0.93c0.04,1.16-0.34,2.29-1.14,3.39
			c-0.8,1.1-1.97,2-3.51,2.7c-1.54,0.7-3.39,1.05-5.55,1.05c-2.64,0-4.74-0.61-6.3-1.83c-1.56-1.22-2.36-2.85-2.4-4.89
			c0-1.48,0.36-3.14,1.08-4.98l3.3-8.64c0.2-0.52,0.3-0.94,0.3-1.26c0-0.52-0.17-0.93-0.51-1.23c-0.34-0.3-0.75-0.45-1.23-0.45
			c-0.68,0-1.38,0.29-2.1,0.87c-0.72,0.58-1.32,1.51-1.8,2.79L60.8,79.83c-0.16,0.44-0.24,0.86-0.24,1.26c0,0.48,0.1,0.87,0.3,1.17
			c0.2,0.3,0.48,0.61,0.84,0.93c0.28,0.24,0.48,0.46,0.6,0.66c0.12,0.2,0.14,0.44,0.06,0.72c-0.16,0.52-0.54,0.9-1.14,1.14
			s-1.54,0.36-2.82,0.36H44.72c-1.04,0-1.79-0.17-2.25-0.51c-0.46-0.34-0.63-0.79-0.51-1.35c0.16-0.48,0.58-0.9,1.26-1.26
			c0.6-0.32,1.1-0.7,1.5-1.14s0.74-1.14,1.02-2.1l5.34-17.34c0.08-0.2,0.12-0.48,0.12-0.84c0-0.44-0.09-0.78-0.27-1.02
			c-0.18-0.24-0.47-0.54-0.87-0.9c-0.4-0.32-0.68-0.6-0.84-0.84c-0.16-0.24-0.18-0.56-0.06-0.96c0.24-0.92,1.5-1.73,3.78-2.43
			c2.28-0.7,4.66-1.05,7.14-1.05c1.96,0,3.51,0.54,4.65,1.62c1.14,1.08,1.69,2.56,1.65,4.44c1.64-2.28,3.37-3.86,5.19-4.74
			c1.82-0.88,3.79-1.32,5.91-1.32c2.32,0,4.21,0.67,5.67,2.01c1.46,1.34,2.27,3.09,2.43,5.25c1.72-2.72,3.56-4.61,5.52-5.67
			c1.96-1.06,4.1-1.59,6.42-1.59c2.44,0,4.41,0.74,5.91,2.22c1.5,1.48,2.25,3.4,2.25,5.76c0,1.24-0.2,2.46-0.6,3.66L101.42,77.79z"
			/>
		<linearGradient id="SVGID_3_" gradientUnits="userSpaceOnUse" x1="42.2503" y1="30.1025" x2="110.9409" y2="98.7931">
			<stop  offset="0" style="stop-color:#805EA8"/>
			<stop  offset="1" style="stop-color:#C75DA3;stop-opacity:0.5"/>
		</linearGradient>
		<path class="st2" d="M141.35,43.68c2.14,1.3,3.21,2.89,3.21,4.77c0,1.52-0.63,2.69-1.89,3.51c-1.26,0.82-2.91,1.23-4.95,1.23
			c-1.88,0-3.34-0.46-4.38-1.38c-1.04-0.92-1.56-2.06-1.56-3.42c0-0.84,0.26-1.72,0.78-2.64c-1.2,0-2.2,0.29-3,0.87
			c-0.8,0.58-1.42,1.57-1.86,2.97c-0.24,0.88-0.36,1.7-0.36,2.46c0,0.96,0.17,1.71,0.51,2.25c0.34,0.54,0.83,0.81,1.47,0.81h3.54
			c2.08,0,3.12,0.64,3.12,1.92c0,0.16-0.04,0.4-0.12,0.72c-0.24,0.88-0.73,1.54-1.47,1.98c-0.74,0.44-1.85,0.66-3.33,0.66h-1.8
			l-5.94,19.44c-0.12,0.48-0.18,0.9-0.18,1.26c0,0.52,0.1,0.93,0.3,1.23c0.2,0.3,0.48,0.59,0.84,0.87c0.28,0.28,0.48,0.51,0.6,0.69
			c0.12,0.18,0.14,0.41,0.06,0.69c-0.2,0.52-0.6,0.9-1.2,1.14s-1.52,0.36-2.76,0.36H107.3c-1.04,0-1.8-0.17-2.28-0.51
			c-0.48-0.34-0.64-0.79-0.48-1.35c0.16-0.48,0.58-0.9,1.26-1.26c0.6-0.32,1.1-0.7,1.5-1.14s0.74-1.14,1.02-2.1L113,64.35
			c0.2-0.6,0.3-1.22,0.3-1.86c0-0.8-0.17-1.43-0.51-1.89c-0.34-0.46-0.85-0.97-1.53-1.53c-0.44-0.36-0.77-0.67-0.99-0.93
			c-0.22-0.26-0.33-0.57-0.33-0.93c-0.04-0.76,0.23-1.3,0.81-1.62c0.58-0.32,1.69-0.48,3.33-0.48h1.5c-0.28-1-0.42-2-0.42-3
			c0-1,0.18-2.04,0.54-3.12c0.76-2.04,2.39-3.76,4.89-5.16c2.5-1.4,6.21-2.1,11.13-2.1C136,41.73,139.21,42.38,141.35,43.68z"/>
	</g>
</g>
</svg>
